{"title":"The Electric Grandmother_Title2.mpg","uid":13955387,"size":2402598912,"categoryP":"video","categoryS":"movies","magnet":"?xt=urn:btih:a745aaf2d47836b7723359499b319f63e95f0bcd&amp;dn=The+Electric+Grandmother_Title2.mpg&amp;tr=udp%3A%2F%2Ftracker.leechers-paradise.org%3A6969&amp;tr=udp%3A%2F%2Fzer0day.ch%3A1337&amp;tr=udp%3A%2F%2Fopen.demonii.com%3A1337&amp;tr=udp%3A%2F%2Ftracker.coppersurfer.tk%3A6969&amp;tr=udp%3A%2F%2Fexodus.desync.com%3A6969","seeders":0,"leechers":1,"uploader":"scott201201","files":1,"time":1458535041,"description":"The Electric Grandmother (1982)\r\n34mins | Family, Sci-Fi | TV Movie 17 January 1982\r\nA trio of children, traumatized by the death of their mother, and their father get a very special robot grandmother to assist them.\r\nDirector: Noel Black\r\nWriters: Ray Bradbury (story), Ray Bradbury (teleplay) | 1 more credit »\r\nStars: Maureen Stapleton, Edward Herrmann, Paul Benedict \r\n\r\n\r\nGeneral\r\nComplete name               : D:videoThe Electric Grandmother_Title2.mpg\r\nFormat                      : MPEG-PS\r\nFile size                   : 2.24 GiB\r\nDuration                    : 34mn 14s\r\nOverall bit rate mode       : Variable\r\nOverall bit rate            : 9 354 Kbps\r\n\r\nVideo\r\nID                          : 224 (0xE0)\r\nFormat                      : MPEG Video\r\nFormat version              : Version 2\r\nFormat profile              :   \r\nFormat settings, BVOP       : Yes\r\nFormat settings, Matrix     : Custom\r\nFormat settings, GOP        : M=3, N=15\r\nFormat settings, picture st : Frame\r\nDuration                    : 34mn 14s\r\nBit rate mode               : Variable\r\nBit rate                    : 9 007 Kbps\r\nMaximum bit rate            : 9 558 Kbps\r\nWidth                       : 720 pixels\r\nHeight                      : 480 pixels\r\nDisplay aspect ratio        : 4:3\r\nFrame rate                  : 29.970 fps\r\nStandard                    : NTSC\r\nColor space                 : YUV\r\nChroma subsampling          : 4:2:0\r\nBit depth                   : 8 bits\r\nScan type                   : Interlaced\r\nScan order                  : Top Field First\r\nCompression mode            : Lossy\r\nBits/(Pixel*Frame)          : 0.870\r\nTime code of first frame    : 00:00:00:00\r\nTime code source            : Group of pictures header\r\nGOP, Open/Closed            : Open\r\nGOP, Open/Closed of first f : Closed\r\nStream size                 : 2.15 GiB (96%)\r\nColor primaries             : BT.601 NTSC\r\nTransfer characteristics    : BT.601\r\nMatrix coefficients         : BT.601\r\n\r\nAudio\r\nID                          : 192 (0xC0)\r\nFormat                      : MPEG Audio\r\nFormat version              : Version 1\r\nFormat profile              : Layer 3\r\nDuration                    : 34mn 14s\r\nBit rate mode               : Constant\r\nBit rate                    : 160 Kbps\r\nChannel(s)                  : 1 channel\r\nSampling rate               : 48.0 KHz\r\nCompression mode            : Lossy\r\nDelay relative to video     : 24ms\r\nStream size                 : 39.2 MiB (2%)","torrent":{"xt":"urn:btih:a745aaf2d47836b7723359499b319f63e95f0bcd","amp;dn":"The+Electric+Grandmother_Title2.mpg","amp;tr":["udp%3A%2F%2Ftracker.leechers-paradise.org%3A6969","udp%3A%2F%2Fzer0day.ch%3A1337","udp%3A%2F%2Fopen.demonii.com%3A1337","udp%3A%2F%2Ftracker.coppersurfer.tk%3A6969","udp%3A%2F%2Fexodus.desync.com%3A6969"],"infoHash":"a745aaf2d47836b7723359499b319f63e95f0bcd","infoHashBuffer":{"type":"Buffer","data":[167,69,170,242,212,120,54,183,114,51,89,73,155,49,159,99,233,95,11,205]},"announce":[],"urlList":[]}}